<svg width="157" height="157" viewBox="0 0 157 157" fill="none" xmlns="http://www.w3.org/2000/svg">
<g clip-path="url(#clip0_248_1565)">
<ellipse cx="103.02" cy="95.1515" rx="45.7869" ry="45.6727" fill="url(#paint0_radial_248_1565)"/>
<ellipse cx="78.6963" cy="78.5" rx="78.6963" ry="78.5" fill="url(#paint1_radial_248_1565)"/>
<path d="M115.875 110.188C115.875 108.75 115.906 107.531 115.969 106.531C116.052 105.531 116.229 104.625 116.5 103.812C116.771 103.021 117.177 102.292 117.719 101.625C118.26 100.938 119.021 100.208 120 99.4375C120.708 98.7917 121.417 98.1146 122.125 97.4062C122.833 96.6771 123.479 95.9271 124.062 95.1562C124.625 94.4062 125.083 93.6354 125.438 92.8438C125.792 92.0521 125.969 91.2604 125.969 90.4688C125.969 89.5104 125.833 88.6875 125.562 88C125.292 87.2917 124.906 86.7083 124.406 86.25C123.885 85.8333 123.25 85.5208 122.5 85.3125C121.771 85.1042 120.927 85 119.969 85C119.219 85 118.49 85.1042 117.781 85.3125C117.073 85.5 116.448 85.8125 115.906 86.25C115.344 86.6875 114.885 87.25 114.531 87.9375C114.198 88.625 114.021 89.4479 114 90.4062H105.281C105.302 88.2812 105.698 86.4375 106.469 84.875C107.24 83.2917 108.281 81.9792 109.594 80.9375C110.906 79.8958 112.448 79.125 114.219 78.625C115.99 78.1042 117.906 77.8438 119.969 77.8438C122.281 77.8438 124.354 78.1042 126.188 78.625C128.021 79.1458 129.573 79.9167 130.844 80.9375C132.094 81.9792 133.052 83.2604 133.719 84.7812C134.385 86.3021 134.719 88.0625 134.719 90.0625C134.719 91.5417 134.469 92.8958 133.969 94.125C133.469 95.3333 132.823 96.4583 132.031 97.5C131.24 98.5625 130.333 99.5729 129.312 100.531C128.312 101.469 127.302 102.385 126.281 103.281C125.656 103.906 125.167 104.458 124.812 104.938C124.458 105.417 124.208 105.906 124.062 106.406C123.896 106.906 123.792 107.458 123.75 108.062C123.708 108.646 123.688 109.354 123.688 110.188H115.875ZM114.594 119.656C114.594 118.281 115.042 117.135 115.938 116.219C116.833 115.281 118.073 114.812 119.656 114.812C121.198 114.812 122.427 115.281 123.344 116.219C124.281 117.135 124.75 118.281 124.75 119.656C124.75 120.99 124.281 122.115 123.344 123.031C122.427 123.927 121.198 124.375 119.656 124.375C118.073 124.375 116.833 123.927 115.938 123.031C115.042 122.115 114.594 120.99 114.594 119.656Z" fill="white"/>
</g>
<defs>
<radialGradient id="paint0_radial_248_1565" cx="0" cy="0" r="1" gradientUnits="userSpaceOnUse" gradientTransform="translate(103.02 95.1515) rotate(90) scale(45.6727 45.7869)">
<stop stop-color="white" stop-opacity="0"/>
<stop offset="1" stop-color="#788AA3"/>
</radialGradient>
<radialGradient id="paint1_radial_248_1565" cx="0" cy="0" r="1" gradientUnits="userSpaceOnUse" gradientTransform="translate(78.6963 78.5) rotate(90) scale(78.5 78.6963)">
<stop stop-color="#788AA3"/>
<stop offset="1" stop-color="white" stop-opacity="0"/>
</radialGradient>
<clipPath id="clip0_248_1565">
<rect width="157" height="157" fill="white"/>
</clipPath>
</defs>
</svg>
